<?xml version="1.0" encoding="UTF-8"?>
<!DOCTYPE svg PUBLIC "-//W3C//DTD SVG 1.1//EN" "http://www.w3.org/Graphics/SVG/1.1/DTD/svg11.dtd">
<!-- Creator: CorelDRAW -->
<svg xmlns="http://www.w3.org/2000/svg" xml:space="preserve" width="6.82666in" height="6.82666in" style="shape-rendering:geometricPrecision; text-rendering:geometricPrecision; image-rendering:optimizeQuality; fill-rule:evenodd; clip-rule:evenodd"
viewBox="0 0 6.82666 6.82666"
 xmlns:xlink="http://www.w3.org/1999/xlink">
 <defs>
  <style type="text/css">
   <![CDATA[
    .fil2 {fill:none}
    .fil0 {fill:#424242}
    .fil1 {fill:#FFFFFE;fill-rule:nonzero}
   ]]>
  </style>
 </defs>
 <rect class="fil0" width="6.82666" height="6.82666"/>
 <g id="Layer_x0020_1">
  <metadata id="CorelCorpID_0Corel-Layer"/>
  <path class="fil1" d="M1.44 2.02435l0.603256 0c0.111917,-0.184248 0.294787,-0.341047 0.52398,-0.453217 0.240394,-0.117657 0.532382,-0.186787 0.846094,-0.186787 0.313713,0 0.605701,0.0691299 0.846094,0.186787 0.229193,0.112169 0.412063,0.268969 0.52398,0.453217l0.60326 0 0.106669 0 0 0.106669 0 1.28 0 0.106669 -0.106669 0 -3.94667 0 -0.106669 0 0 -0.106669 0 -1.28 0 -0.106669 0.106669 0zm0.665677 0.213339l-0.559008 0 0 1.06666 3.73333 0 0 -1.06666 -0.559012 0 -0.0652165 0 -0.0297835 -0.0583346c-0.0860118,-0.168461 -0.248492,-0.313925 -0.45989,-0.417386 -0.211433,-0.10348 -0.471035,-0.164283 -0.752764,-0.164283 -0.281728,0 -0.541331,0.0608031 -0.752764,0.164283 -0.211398,0.103461 -0.373878,0.248925 -0.45989,0.417386l-0.0297835 0.0583346 -0.0652165 0z"/>
  <path class="fil1" d="M0.853331 4.37564l5.12 0 0.106669 0 0 0.106669 0 0.853335 0 0.106669 -0.106669 0 -0.533622 0 -0.102169 0 -0.00408268 -0.102504c-0.00239764,-0.0602402 -0.0288307,-0.114791 -0.0699685,-0.154319 -0.0406654,-0.0390709 -0.0959803,-0.0631772 -0.156815,-0.0631772l-3.38668 0c-0.0608346,0 -0.11615,0.0241063 -0.156815,0.0631772 -0.0411378,0.0395276 -0.0675709,0.0940787 -0.0699685,0.154319l-0.00408268 0.102504 -0.102169 0 -0.533626 0 -0.106665 0 -3.93701e-006 -0.106669 0 -0.853335 0 -0.106669 0.106669 0zm5.01333 0.213339l-4.90666 0 0 0.639996 0.337083 0c0.021626,-0.075937 0.0631929,-0.143587 0.118591,-0.196815 0.0792953,-0.076189 0.186669,-0.123185 0.304319,-0.123185l3.38668 0c0.11765,0 0.225024,0.0469961 0.304319,0.123185 0.0553976,0.0532283 0.0969646,0.120878 0.118591,0.196815l0.337079 0 0 -0.639996z"/>
  <path class="fil1" d="M1.06667 4.37564l4.69333 0 0 -0.159996c0,-0.0438898 -0.0180354,-0.0838701 -0.0470787,-0.112917 -0.0290472,-0.0290433 -0.0690276,-0.0470787 -0.112917,-0.0470787l-4.37334 0c-0.0438898,0 -0.0838701,0.0180354 -0.112917,0.0470787 -0.0290433,0.0290472 -0.0470787,0.0690276 -0.0470787,0.112917l0 0.159996zm4.8 0.213339l-4.90667 0 -0.106669 0 0 -0.106669 0 -0.266665c0,-0.102776 0.0419724,-0.196138 0.109583,-0.263752 0.0676142,-0.0676102 0.160976,-0.109583 0.263752,-0.109583l4.37334 0c0.102776,0 0.196138,0.0419724 0.263752,0.109583 0.0676102,0.0676142 0.109583,0.160976 0.109583,0.263752l0 0.266665 0 0.106669 -0.106669 0z"/>
  <polygon class="fil1" points="1.58833,3.47519 1.11333,4.10157 0.944161,3.97324 1.41917,3.34685 "/>
  <polygon class="fil1" points="5.4338,3.37898 5.90881,4.00537 5.73965,4.1337 5.26464,3.50731 "/>
  <path class="fil1" d="M2.06384 2.88847l1.14314 0c0.086626,0 0.165307,0.0353661 0.222276,0.0923346 0.0569685,0.0569685 0.0923346,0.13565 0.0923346,0.222276l0 0.207941 0 0.106669 -0.106669 0 -1.55902 0 -0.106669 0 0 -0.106669 0 -0.207941c0,-0.086626 0.0353661,-0.165307 0.0923346,-0.222276 0.0569685,-0.0569685 0.13565,-0.0923346 0.222276,-0.0923346zm1.14314 0.213339l-1.14314 0c-0.0277402,0 -0.0530394,0.0114291 -0.0714409,0.0298307 -0.0184016,0.0184016 -0.0298307,0.0437008 -0.0298307,0.0714409l0 0.101272 1.34569 0 0 -0.101272c0,-0.0277402 -0.0114291,-0.0530394 -0.0298307,-0.0714409 -0.0184016,-0.0184016 -0.0437008,-0.0298307 -0.0714409,-0.0298307z"/>
  <path class="fil1" d="M3.61968 2.88847l1.14314 0c0.086626,0 0.165307,0.0353661 0.222276,0.0923346 0.0569685,0.0569685 0.0923346,0.13565 0.0923346,0.222276l0 0.207941 0 0.106669 -0.106669 0 -1.55902 0 -0.106669 0 0 -0.106669 0 -0.207941c0,-0.086626 0.0353661,-0.165307 0.0923346,-0.222276 0.0569685,-0.0569685 0.13565,-0.0923346 0.222276,-0.0923346zm1.14314 0.213339l-1.14314 0c-0.0277402,0 -0.0530394,0.0114291 -0.0714409,0.0298307 -0.0184016,0.0184016 -0.0298307,0.0437008 -0.0298307,0.0714409l0 0.101272 1.34569 0 0 -0.101272c0,-0.0277402 -0.0114291,-0.0530394 -0.0298307,-0.0714409 -0.0184016,-0.0184016 -0.0437008,-0.0298307 -0.0714409,-0.0298307z"/>
  <rect class="fil2" width="6.82666" height="6.82666"/>
 </g>
</svg>
