<?xml version="1.0" encoding="UTF-8"?>
<!DOCTYPE svg PUBLIC "-//W3C//DTD SVG 1.1//EN" "http://www.w3.org/Graphics/SVG/1.1/DTD/svg11.dtd">
<!-- Creator: CorelDRAW -->
<svg xmlns="http://www.w3.org/2000/svg" xml:space="preserve" width="6.82666in" height="6.82666in" style="shape-rendering:geometricPrecision; text-rendering:geometricPrecision; image-rendering:optimizeQuality; fill-rule:evenodd; clip-rule:evenodd"
viewBox="0 0 6.82666 6.82666"
 xmlns:xlink="http://www.w3.org/1999/xlink">
 <defs>
  <style type="text/css">
   <![CDATA[
    .fil1 {fill:none}
    .fil0 {fill:#212121;fill-rule:nonzero}
   ]]>
  </style>
 </defs>
 <g id="Layer_x0020_1">
  <metadata id="CorelCorpID_0Corel-Layer"/>
  <g id="_213015272">
   <path id="_213016496" class="fil0" d="M0.933331 3.3199l4.96 0c0.0441811,0 0.08,0.0358189 0.08,0.08l0 1.40188c0,0.0441811 -0.0358189,0.08 -0.08,0.08l-4.96 0c-0.0441811,0 -0.08,-0.0358189 -0.08,-0.08l0 -1.40188c0,-0.0441811 0.0358189,-0.08 0.08,-0.08zm4.88 0.16l-4.8 0 0 1.24188 4.8 0 0 -1.24188z"/>
   <path id="_213016064" class="fil0" d="M1.86885 2.04081l0.247724 0c0.124878,-0.136201 0.307496,-0.250323 0.527791,-0.330575 0.223874,-0.0815472 0.487472,-0.128677 0.768957,-0.128677 0.281484,0 0.545083,0.0471299 0.768957,0.128677 0.220295,0.080252 0.402913,0.194374 0.527791,0.330575l0.247728 0c0.202744,0 0.387717,0.071 0.522394,0.185382 0.138374,0.11752 0.224268,0.280583 0.224268,0.460807l0 0.712902c0,0.0441811 -0.0358189,0.08 -0.08,0.08l-4.42228 0c-0.0441811,0 -0.08,-0.0358189 -0.08,-0.08l0 -0.712902c0,-0.180228 0.0858937,-0.343291 0.224268,-0.460807 0.134681,-0.114382 0.319654,-0.185382 0.522398,-0.185382zm0.283744 0.16l-0.283744 0c-0.163921,0 -0.312291,0.0564016 -0.419272,0.147256 -0.10328,0.0877126 -0.167394,0.207756 -0.167394,0.338933l0 0.632902 4.26228 0 0 -0.632902c0,-0.131177 -0.0641142,-0.251217 -0.167394,-0.338933 -0.10698,-0.0908583 -0.255346,-0.147256 -0.419268,-0.147256l-0.283075 0 -0.000673228 0 0 -3.93701e-006c-0.0228268,-1.1811e-005 -0.0454882,-0.00973228 -0.0612992,-0.0285906l0.0612992 -0.0514055 -0.061252 0.051252c-0.106929,-0.127512 -0.275764,-0.235642 -0.484898,-0.311827 -0.206472,-0.0752087 -0.451327,-0.118677 -0.714579,-0.118677 -0.263252,0 -0.508106,0.0434685 -0.714579,0.118677 -0.207398,0.0755512 -0.37515,0.182524 -0.482209,0.308657 -0.0145984,0.0193858 -0.0378071,0.0319173 -0.0639409,0.0319173z"/>
   <g>
    <path id="_213016016" class="fil0" d="M1.4846 4.72178l0.532079 0c0.0441811,0 0.08,0.0358189 0.08,0.08l0 0.363315c0,0.0441811 -0.0358189,0.08 -0.08,0.08l-0.532079 0c-0.0441811,0 -0.08,-0.0358189 -0.08,-0.08l0 -0.363315c0,-0.0441811 0.0358189,-0.08 0.08,-0.08zm0.452079 0.16l-0.372079 0 0 0.203315 0.372079 0 0 -0.203315z"/>
    <path id="_213016352" class="fil0" d="M4.80998 4.72178l0.532079 0c0.0441811,0 0.08,0.0358189 0.08,0.08l0 0.363315c0,0.0441811 -0.0358189,0.08 -0.08,0.08l-0.532079 0c-0.0441811,0 -0.08,-0.0358189 -0.08,-0.08l0 -0.363315c0,-0.0441811 0.0358189,-0.08 0.08,-0.08zm0.452079 0.16l-0.372079 0 0 0.203315 0.372079 0 0 -0.203315z"/>
   </g>
   <g>
    <path id="_213015944" class="fil0" d="M1.91433 2.86899l0.909374 0c0.0705197,0 0.134575,0.0287953 0.180957,0.0751772 0.046378,0.046378 0.0751732,0.110437 0.0751732,0.180957l0 0.274776c0,0.0441811 -0.0358189,0.08 -0.08,0.08l-1.26164 0c-0.0441811,0 -0.08,-0.0358189 -0.08,-0.08l0 -0.274776c0,-0.0705197 0.0287953,-0.134579 0.0751772,-0.180957 0.046378,-0.0463819 0.110437,-0.0751772 0.180957,-0.0751772zm0.909374 0.16l-0.909374 0c-0.0263504,0 -0.0503701,0.0108425 -0.0678307,0.0283031 -0.0174606,0.0174606 -0.0283031,0.0414803 -0.0283031,0.0678307l0 0.194776 1.10164 0 0 -0.194776c0,-0.0263504 -0.0108425,-0.050374 -0.0282992,-0.0678307 -0.0174606,-0.0174606 -0.0414803,-0.0283031 -0.0678307,-0.0283031z"/>
    <path id="_213015680" class="fil0" d="M4.00295 2.86899l0.909374 0c0.0705197,0 0.134575,0.0287953 0.180957,0.0751772 0.046378,0.046378 0.0751732,0.110437 0.0751732,0.180957l0 0.274776c0,0.0441811 -0.0358189,0.08 -0.08,0.08l-1.26164 0c-0.0441811,0 -0.08,-0.0358189 -0.08,-0.08l0 -0.274776c0,-0.0705197 0.0287953,-0.134575 0.0751772,-0.180957 0.0463819,-0.0463819 0.110441,-0.0751772 0.180961,-0.0751772zm0.909374 0.16l-0.909374 0c-0.0263504,0 -0.050374,0.0108425 -0.0678346,0.0283031 -0.0174606,0.0174606 -0.0283031,0.0414803 -0.0283031,0.0678307l0 0.194776 1.10164 0 0 -0.194776c0,-0.0263504 -0.0108425,-0.050374 -0.0282992,-0.0678307 -0.0174606,-0.0174606 -0.0414803,-0.0283031 -0.0678307,-0.0283031z"/>
   </g>
  </g>
 </g>
 <rect class="fil1" width="6.82666" height="6.82666"/>
</svg>
