<?xml version="1.0" encoding="iso-8859-1"?>
<!-- Generator: Adobe Illustrator 19.0.0, SVG Export Plug-In . SVG Version: 6.00 Build 0)  -->
<svg version="1.1" id="Capa_1" xmlns="http://www.w3.org/2000/svg" xmlns:xlink="http://www.w3.org/1999/xlink" x="0px" y="0px"
	 viewBox="0 0 512 512" style="enable-background:new 0 0 512 512;" xml:space="preserve">
<g>
	<g>
		<path d="M510.385,210.761c-4.698-19.198-20.896-34.833-40.302-38.896c-16.063-3.365-32.49,0.552-45.021,10.719
			c-12.542,10.188-19.729,25.281-19.729,41.417v53.333H106.667v-51.052c0-27.167-19.115-50.76-44.458-54.896
			c-15.594-2.49-31.469,1.823-43.417,11.979C6.854,193.521,0,208.333,0,224c0,16.677,8.042,32.427,21.333,42.448v74.885
			C21.333,364.865,40.469,384,64,384v10.667c0,17.646,14.354,32,32,32s32-14.354,32-32V384h256v10.667c0,17.646,14.354,32,32,32
			s32-14.354,32-32V384c23.531,0,42.667-19.135,42.667-42.667v-74.875c13.507-10.132,21.281-25.807,21.333-42.464
			C512.014,219.624,511.466,215.185,510.385,210.761z M53.333,234.667c-5.891,0-10.667-4.776-10.667-10.667
			c0-5.892,4.776-10.667,10.667-10.667S64,218.108,64,224C64,229.891,59.224,234.667,53.333,234.667z M458.667,234.667
			c-5.891,0-10.667-4.776-10.667-10.667c0-5.892,4.776-10.667,10.667-10.667s10.667,4.775,10.667,10.667
			C469.333,229.891,464.557,234.667,458.667,234.667z"/>
	</g>
</g>
<g>
	<g>
		<path d="M430.365,138.604C390.521,103.261,331.854,85.333,256,85.333c-76.104,0-134.875,17.958-174.667,53.375
			c-2.677,2.385-3.979,5.958-3.458,9.51c0.51,3.543,2.781,6.595,6.031,8.115C110.688,168.886,128,196.344,128,226.281v19.052
			c0,5.896,4.771,10.667,10.667,10.667h234.667c5.896,0,10.667-4.771,10.667-10.667V224c0-28.948,17.167-55.531,43.729-67.719
			c3.281-1.51,5.573-4.563,6.104-8.125C434.365,144.583,433.053,141,430.365,138.604z"/>
	</g>
</g>
<g>
</g>
<g>
</g>
<g>
</g>
<g>
</g>
<g>
</g>
<g>
</g>
<g>
</g>
<g>
</g>
<g>
</g>
<g>
</g>
<g>
</g>
<g>
</g>
<g>
</g>
<g>
</g>
<g>
</g>
</svg>
